<svg xmlns="http://www.w3.org/2000/svg" version="1.1" xmlns:xlink="http://www.w3.org/1999/xlink" xmlns:svgjs="http://svgjs.dev/svgjs" width="2000" height="1483" viewBox="0 0 2000 1483"><g transform="matrix(1,0,0,1,-1.067180073459781,0.600404858299612)"><svg viewBox="0 0 333 247" data-background-color="#ffffff" preserveAspectRatio="xMidYMid meet" height="1483" width="2000" xmlns="http://www.w3.org/2000/svg" xmlns:xlink="http://www.w3.org/1999/xlink"><g id="tight-bounds" transform="matrix(1,0,0,1,0.1776854822310554,-0.09999999999999432)"><svg viewBox="0 0 332.6446290355379 247.2" height="247.2" width="332.6446290355379"><g><svg viewBox="0 0 395.52 293.92491405461567" height="247.2" width="332.6446290355379"><g transform="matrix(1,0,0,1,0,218.20486322869442)"><svg viewBox="0 0 395.52 75.72005082592122" height="75.72005082592122" width="395.52"><g id="textblocktransform"><svg viewBox="0 0 395.52 75.72005082592122" height="75.72005082592122" width="395.52" id="textblock"><g><svg viewBox="0 0 395.52 75.72005082592122" height="75.72005082592122" width="395.52"><g transform="matrix(1,0,0,1,0,0)"><svg width="395.52" viewBox="1.9 -34.3 236.07999999999998 45.199999999999996" height="75.72005082592122" data-palette-color="#ffffff"><path d="M1.9-34.3L37-34.3 37-23.05 32.4-23.05 32.4-30.15 22.05-30.15 22.05-4.15 28.55-4.15 28.55 0 10.35 0 10.35-4.15 16.9-4.15 16.9-30.15 6.5-30.15 6.5-23.05 1.9-23.05 1.9-34.3ZM60.25-6.7L62.35-3.5Q57.55 0.7 51.4 0.7L51.4 0.7Q48.05 0.7 45.05-0.7 42.05-2.1 40.2-4.8 38.35-7.5 38.35-11.2L38.35-11.2Q38.35-15.15 40.25-18.1 42.15-21.05 45.2-22.63 48.25-24.2 51.6-24.2L51.6-24.2Q54.55-24.2 56.87-23.25 59.2-22.3 60.52-20.6 61.85-18.9 61.85-16.7L61.85-16.7Q61.85-13.4 59.02-11.58 56.2-9.75 52.25-9.75L52.25-9.75Q49.7-9.75 47.5-10.28 45.3-10.8 43.05-11.8L43.05-11.8 43.05-11.35Q43.05-9 44.17-7.2 45.3-5.4 47.2-4.45 49.1-3.5 51.35-3.5L51.35-3.5Q56.45-3.5 60.25-6.7L60.25-6.7ZM51.95-20.3Q49.25-20.3 46.92-18.75 44.6-17.2 43.6-14.55L43.6-14.55Q47.4-13.2 51.2-13.2L51.2-13.2Q53.7-13.2 55.32-14.13 56.95-15.05 56.95-16.7L56.95-16.7Q56.95-18.3 55.55-19.3 54.15-20.3 51.95-20.3L51.95-20.3ZM99.25-4.15L104.4-4.15 104.4 0 87.55 0 87.55-3.8 92.75-3.8 84.25-14.05 75.59-3.8 80.95-3.8 80.95 0 64.9 0 64.9-4.15 70.45-4.15 81.4-16.7 69.5-30.15 64.9-30.15 64.9-34.3 81.7-34.3 81.7-30.5 75.95-30.5 84.95-19.95 94.05-30.5 88.2-30.5 88.2-34.3 104.34-34.3 104.34-30.15 99.15-30.15 87.75-17.35 99.25-4.15ZM125.24-24.2Q128.19-24.2 130.69-22.65 133.19-21.1 134.69-18.32 136.19-15.55 136.19-12L136.19-12Q136.19-8.35 134.57-5.45 132.94-2.55 130.14-0.93 127.34 0.7 123.94 0.7L123.94 0.7Q119.49 0.7 115.74-2.7L115.74-2.7 115.74 6.95 121.19 6.95 121.19 10.9 105.69 10.9 105.69 6.95 110.94 6.95 110.94-19.6 105.69-19.6 105.69-23.55 115.74-23.55 115.74-19Q117.69-21.4 120.19-22.8 122.69-24.2 125.24-24.2L125.24-24.2ZM122.89-3.5Q125.24-3.5 127.12-4.58 128.99-5.65 130.04-7.6 131.09-9.55 131.09-12.05L131.09-12.05Q131.09-15.6 129.07-17.82 127.04-20.05 123.89-20.05L123.89-20.05Q121.74-20.05 119.64-18.75 117.54-17.45 115.74-15.15L115.74-15.15 115.74-6.4Q119.34-3.5 122.89-3.5L122.89-3.5ZM149.14-3.95L154.59-3.95 154.59 0 138.99 0 138.99-3.95 144.24-3.95 144.24-30.35 138.99-30.35 138.99-34.3 149.14-34.3 149.14-3.95ZM170.19 0.7Q166.74 0.7 163.74-0.85 160.74-2.4 158.96-5.25 157.19-8.1 157.19-11.75L157.19-11.75Q157.19-15.45 158.96-18.28 160.74-21.1 163.74-22.65 166.74-24.2 170.19-24.2L170.19-24.2Q173.59-24.2 176.56-22.65 179.54-21.1 181.34-18.25 183.14-15.4 183.14-11.75L183.14-11.75Q183.14-8.1 181.39-5.25 179.64-2.4 176.66-0.85 173.69 0.7 170.19 0.7L170.19 0.7ZM170.19-3.25Q172.44-3.25 174.24-4.3 176.04-5.35 177.06-7.28 178.09-9.2 178.09-11.75L178.09-11.75Q178.09-14.3 177.06-16.23 176.04-18.15 174.24-19.2 172.44-20.25 170.19-20.25L170.19-20.25Q166.74-20.25 164.51-17.93 162.29-15.6 162.29-11.75L162.29-11.75Q162.29-7.9 164.51-5.58 166.74-3.25 170.19-3.25L170.19-3.25ZM208.09-24.15L210.19-24.15 210.19-14.15 205.84-14.15 205.84-19.3Q203.88-19.3 201.59-17.85 199.28-16.4 196.84-13.75L196.84-13.75 196.84-3.95 202.19-3.95 202.19 0 186.63 0 186.63-3.95 191.94-3.95 191.94-19.6 186.63-19.6 186.63-23.55 196.84-23.55 196.84-17.65Q199.49-20.7 202.36-22.43 205.24-24.15 208.09-24.15L208.09-24.15ZM235.88-6.7L237.98-3.5Q233.18 0.7 227.03 0.7L227.03 0.7Q223.68 0.7 220.68-0.7 217.68-2.1 215.83-4.8 213.98-7.5 213.98-11.2L213.98-11.2Q213.98-15.15 215.88-18.1 217.78-21.05 220.83-22.63 223.88-24.2 227.23-24.2L227.23-24.2Q230.18-24.2 232.51-23.25 234.83-22.3 236.16-20.6 237.48-18.9 237.48-16.7L237.48-16.7Q237.48-13.4 234.66-11.58 231.83-9.75 227.88-9.75L227.88-9.75Q225.33-9.75 223.13-10.28 220.93-10.8 218.68-11.8L218.68-11.8 218.68-11.35Q218.68-9 219.81-7.2 220.93-5.4 222.83-4.45 224.73-3.5 226.98-3.5L226.98-3.5Q232.08-3.5 235.88-6.7L235.88-6.7ZM227.58-20.3Q224.88-20.3 222.56-18.75 220.23-17.2 219.23-14.55L219.23-14.55Q223.03-13.2 226.83-13.2L226.83-13.2Q229.33-13.2 230.96-14.13 232.58-15.05 232.58-16.7L232.58-16.7Q232.58-18.3 231.18-19.3 229.78-20.3 227.58-20.3L227.58-20.3Z" opacity="1" transform="matrix(1,0,0,1,0,0)" fill="#ffffff" class="wordmark-text-0" data-fill-palette-color="primary" id="text-0"></path></svg></g></svg></g></svg></g></svg></g><g transform="matrix(1,0,0,1,106.53325510443295,0)"><svg viewBox="0 0 182.45348979113407 182.45348979113407" height="182.45348979113407" width="182.45348979113407"><g><svg></svg></g><g id="icon-0"><svg viewBox="0 0 182.45348979113407 182.45348979113407" height="182.45348979113407" width="182.45348979113407"><g><path d="M0 91.227c0-50.383 40.844-91.227 91.227-91.227 50.383 0 91.227 40.844 91.226 91.227 0 50.383-40.844 91.227-91.226 91.226-50.383 0-91.227-40.844-91.227-91.226zM91.227 175.625c46.612 0 84.398-37.786 84.398-84.398 0-46.612-37.786-84.398-84.398-84.398-46.612 0-84.398 37.786-84.398 84.398 0 46.612 37.786 84.398 84.398 84.398z" data-fill-palette-color="accent" fill="#ffd700" stroke="transparent"></path><ellipse rx="90.31447744661136" ry="90.31447744661136" cx="91.22674489556704" cy="91.22674489556704" fill="#ffd700" stroke="transparent" stroke-width="0" fill-opacity="1" data-fill-palette-color="accent"></ellipse></g><g transform="matrix(1,0,0,1,40.190135935405266,40.190135935405266)"><svg viewBox="0 0 102.07321792032354 102.07321792032354" height="102.07321792032354" width="102.07321792032354"><g><svg xmlns="http://www.w3.org/2000/svg" xmlns:xlink="http://www.w3.org/1999/xlink" version="1.1" x="0" y="0" viewBox="5.249000000000002 5.03 89.97 89.97" enable-background="new 0 0 100 100" xml:space="preserve" height="102.07321792032354" width="102.07321792032354" class="icon-cg-0" data-fill-palette-color="quaternary" id="cg-0"><g fill="#ffffff" data-fill-palette-color="quaternary"><path d="M50.234 5.03c-24.805 0-44.985 20.18-44.985 44.985S25.429 95 50.234 95s44.985-20.18 44.985-44.985S75.039 5.03 50.234 5.03zM67.917 32.826L58.001 56.79c-0.192 0.465-0.563 0.833-1.028 1.023l-24.01 9.805c-0.261 0.106-0.52-0.154-0.413-0.415l9.916-23.964c0.192-0.465 0.563-0.833 1.028-1.023l24.01-9.805C67.765 32.305 68.025 32.566 67.917 32.826z" fill="#ffffff" data-fill-palette-color="quaternary"></path></g></svg></g></svg></g></svg></g></svg></g><g></g></svg></g><defs></defs></svg><rect width="332.6446290355379" height="247.2" fill="none" stroke="none" visibility="hidden"></rect></g></svg></g></svg>